<?xml version="1.0" encoding="UTF-8"?><svg id="uuid-bdeb30f6-df4e-4ec4-b4a4-8c3073cc92c4" xmlns="http://www.w3.org/2000/svg" viewBox="0 0 139.2 63.27"><defs><style>.uuid-a31173dc-13ea-4200-9ce6-b297f3823687{fill:#07b6d4;}.uuid-8ee83f95-0eaf-452e-b5a2-359ebd5d1122{fill:#c0f247;}.uuid-35cf592c-589a-4f93-8562-501d71ae54de{fill:#f43f5e;}</style></defs><g id="uuid-4a436276-0dee-4c92-97c5-a0febf992ca3"><circle class="uuid-8ee83f95-0eaf-452e-b5a2-359ebd5d1122" cx="25.31" cy="12.65" r="12.65"/><circle class="uuid-35cf592c-589a-4f93-8562-501d71ae54de" cx="69.6" cy="12.65" r="12.65"/><circle class="uuid-a31173dc-13ea-4200-9ce6-b297f3823687" cx="113.89" cy="12.65" r="12.65"/><path class="uuid-8ee83f95-0eaf-452e-b5a2-359ebd5d1122" d="M25.31,37.96c-8.45,0-25.31,4.57-25.31,12.98v6.01c0,3.49,2.83,6.33,6.33,6.33h37.96c3.49,0,6.33-2.83,6.33-6.33v-6.01c0-8.4-16.86-12.98-25.31-12.98Z"/><path class="uuid-35cf592c-589a-4f93-8562-501d71ae54de" d="M69.6,37.96c-2.78,0-6.45.51-10.12,1.46,2.34,3.16,3.79,7.03,3.79,11.52v12.33h25.31c3.49,0,6.33-2.83,6.33-6.33v-6.01c0-8.42-16.83-12.98-25.31-12.98Z"/><path class="uuid-a31173dc-13ea-4200-9ce6-b297f3823687" d="M113.89,37.96c-2.78,0-6.45.51-10.12,1.46,2.34,3.16,3.79,7.03,3.79,11.52v12.33h25.31c3.49,0,6.33-2.83,6.33-6.33v-6.01c0-8.42-16.83-12.98-25.31-12.98Z"/></g></svg>