<?xml version="1.0" encoding="UTF-8"?><svg id="uuid-6a79c2f6-518c-46ce-8618-2c47888d8179" xmlns="http://www.w3.org/2000/svg" viewBox="0 0 387.7 87.66"><defs><style>.uuid-23dac2c5-c099-46cf-94a5-0353331e52cc{fill:#c0f247;}</style></defs><g id="uuid-aa161294-387f-427c-873e-bc324bb86e93"><path class="uuid-23dac2c5-c099-46cf-94a5-0353331e52cc" d="M62.59,37.53c-.66-2.49-1.23-6.46-1.23-8.7,0-9.06,6.7-20.06,23.03-20.06,15.17,0,20.76,12.82,20.76,23.33,0,15.77-17.49,29.27-17.49,29.27,0,0-4.05,26.3-35.06,26.3-12.05,0-12.77-1.85-16.28-1.85s-6.83,1.85-8.93,1.85c-3.17,0-15.24-10.72-19.44-22.28C1.11,48.57,0,35,0,28.6,0,18.87,1.78,12.84,5.82,7.37,9.64,2.21,13.23,0,17.53,0s6.17,1.59,9.32,4.21c2.63,2.1,3.68,3.37,5.26,5.15,1.31,1.79.11,5.57-1.31,7.31-.95,1.16-4.41,8.47-12.35,3.41-2.37-1.78-3.11,1.4-3.11,3.78s.63,9.37,7.84,15.77c7.35,6.31,9.46,12.08,11.56,16.81,1.05-4.73,4.73-22.07,27.85-18.92Z"/><path class="uuid-23dac2c5-c099-46cf-94a5-0353331e52cc" d="M203.86,37.53c-.66-2.49-1.23-6.46-1.23-8.7,0-9.06,6.7-20.06,23.03-20.06,15.17,0,20.76,12.82,20.76,23.33,0,15.77-17.49,29.27-17.49,29.27,0,0-4.05,26.3-35.06,26.3-12.05,0-12.77-1.85-16.28-1.85s-6.83,1.85-8.93,1.85c-3.17,0-15.24-10.72-19.44-22.28-6.83-16.81-7.94-30.38-7.94-36.78,0-9.73,1.78-15.76,5.82-21.23,3.82-5.16,7.41-7.37,11.71-7.37s6.17,1.59,9.32,4.21c2.63,2.1,3.68,3.37,5.26,5.15,1.31,1.79.11,5.57-1.31,7.31-.95,1.16-4.41,8.47-12.35,3.41-2.37-1.78-3.11,1.4-3.11,3.78s.63,9.37,7.84,15.77c7.35,6.31,9.46,12.08,11.56,16.81,1.05-4.73,4.73-22.07,27.85-18.92Z"/><path class="uuid-23dac2c5-c099-46cf-94a5-0353331e52cc" d="M345.13,37.53c-.66-2.49-1.23-6.46-1.23-8.7,0-9.06,6.7-20.06,23.03-20.06,15.17,0,20.76,12.82,20.76,23.33,0,15.77-17.49,29.27-17.49,29.27,0,0-4.05,26.3-35.06,26.3-12.05,0-12.77-1.85-16.28-1.85s-6.83,1.85-8.93,1.85c-3.17,0-15.24-10.72-19.44-22.28-6.83-16.81-7.94-30.38-7.94-36.78,0-9.73,1.78-15.76,5.82-21.23,3.82-5.16,7.41-7.37,11.71-7.37s6.17,1.59,9.32,4.21c2.63,2.1,3.68,3.37,5.26,5.15,1.31,1.79.11,5.57-1.31,7.31-.95,1.16-4.41,8.47-12.35,3.41-2.37-1.78-3.11,1.4-3.11,3.78s.63,9.37,7.84,15.77c7.35,6.31,9.46,12.08,11.56,16.81,1.05-4.73,4.73-22.07,27.85-18.92Z"/></g></svg>